<svg xmlns="http://www.w3.org/2000/svg" width="720" height="420" viewBox="0 0 720 420" font-family="system-ui,-apple-system,sans-serif">
<rect width="720" height="420" fill="#fff"/>
<text x="74" y="20" font-size="13" font-weight="600">leakage_na trajectory vs lot LOT201</text>
<text x="74" y="35" font-size="10.5" fill="#666">envelope = lot median +/- 3 robust sigma (MAD); forecast from 0 h and 24 h only</text>
<line x1="74" y1="364.0" x2="552" y2="364.0" stroke="#f2f2f2"/>
<text x="67" y="368.0" font-size="10" text-anchor="end" fill="#555">-3.35</text>
<line x1="74" y1="284.0" x2="552" y2="284.0" stroke="#f2f2f2"/>
<text x="67" y="288.0" font-size="10" text-anchor="end" fill="#555">24.4</text>
<line x1="74" y1="204.0" x2="552" y2="204.0" stroke="#f2f2f2"/>
<text x="67" y="208.0" font-size="10" text-anchor="end" fill="#555">52.2</text>
<line x1="74" y1="124.0" x2="552" y2="124.0" stroke="#f2f2f2"/>
<text x="67" y="128.0" font-size="10" text-anchor="end" fill="#555">79.9</text>
<line x1="74" y1="44.0" x2="552" y2="44.0" stroke="#f2f2f2"/>
<text x="67" y="48.0" font-size="10" text-anchor="end" fill="#555">108</text>
<polygon points="74.0,252.3 138.4,250.1 331.7,244.3 524.9,240.6 524.9,332.4 331.7,335.0 138.4,338.6 74.0,341.9" fill="#4a90d9" opacity="0.13"/>
<path d="M74.0,297.1 L138.4,294.4 L331.7,289.7 L524.9,286.5" fill="none" stroke="#4a90d9" stroke-width="1.6" stroke-dasharray="6,3"/>
<line x1="74" y1="66.1" x2="552" y2="66.1" stroke="#c0392b" stroke-width="1.5"/>
<text x="548" y="62.1" font-size="9.5" text-anchor="end" fill="#c0392b">datasheet limit 100 nA</text>
<line x1="74" y1="196.8" x2="552" y2="196.8" stroke="#e67e22" stroke-width="1.2" stroke-dasharray="4,3"/>
<text x="548" y="192.8" font-size="9.5" text-anchor="end" fill="#e67e22">lot-derived safe limit 54.6</text>
<line x1="524.9" y1="276.3" x2="524.9" y2="197.7" stroke="#7b3fbf" stroke-width="7" opacity="0.30"/>
<circle cx="524.9" cy="237.0" r="4.5" fill="none" stroke="#7b3fbf" stroke-width="2"/>
<path d="M74.0,311.6 L138.4,270.4 L331.7,213.5" fill="none" stroke="#111" stroke-width="2.2"/>
<circle cx="74.0" cy="311.6" r="3.6" fill="#111"/>
<circle cx="138.4" cy="270.4" r="3.6" fill="#111"/>
<circle cx="331.7" cy="213.5" r="3.6" fill="#111"/>
<text x="74.0" y="380" font-size="10" text-anchor="middle" fill="#555">0h</text>
<text x="138.4" y="380" font-size="10" text-anchor="middle" fill="#555">24h</text>
<text x="331.7" y="380" font-size="10" text-anchor="middle" fill="#555">96h</text>
<text x="524.9" y="380" font-size="10" text-anchor="middle" fill="#555">168h</text>
<line x1="74" y1="364" x2="552" y2="364" stroke="#333"/>
<line x1="74" y1="44" x2="74" y2="364" stroke="#333"/>
<text x="313" y="410" font-size="11" text-anchor="middle" fill="#222">Burn-in time (hours at 125 C)</text>
<text x="16" y="204" font-size="11" fill="#222" transform="rotate(-90 16 204)" text-anchor="middle">leakage_na (nA)</text>
<line x1="558" y1="50" x2="576" y2="50" stroke="#111" stroke-width="2.4"/>
<text x="580" y="53.5" font-size="9.5" fill="#222">this component</text>
<line x1="558" y1="66" x2="576" y2="66" stroke="#4a90d9" stroke-width="2.4"/>
<text x="580" y="69.5" font-size="9.5" fill="#222">lot median</text>
<line x1="558" y1="82" x2="576" y2="82" stroke="#4a90d9" stroke-width="2.4"/>
<text x="580" y="85.5" font-size="9.5" fill="#222">lot robust envelope</text>
<line x1="558" y1="98" x2="576" y2="98" stroke="#7b3fbf" stroke-width="2.4"/>
<text x="580" y="101.5" font-size="9.5" fill="#222">forecast + 95% band</text>
<line x1="558" y1="114" x2="576" y2="114" stroke="#c0392b" stroke-width="2.4"/>
<text x="580" y="117.5" font-size="9.5" fill="#222">datasheet limit</text>
</svg>