<svg xmlns="http://www.w3.org/2000/svg" width="900" height="520" viewBox="0 0 900 520" font-family="system-ui,-apple-system,sans-serif">
<rect width="900" height="520" fill="#fff"/>
<text x="78" y="26" font-size="15" font-weight="600">Safety slope (b) lot-derived vs (d) confidence-adjusted: where they disagree</text>
<line x1="78" y1="442.0" x2="710" y2="442.0" stroke="#eee"/>
<text x="70" y="446.0" font-size="11" text-anchor="end" fill="#444">0</text>
<line x1="78" y1="362.8" x2="710" y2="362.8" stroke="#eee"/>
<text x="70" y="366.8" font-size="11" text-anchor="end" fill="#444">20</text>
<line x1="78" y1="283.6" x2="710" y2="283.6" stroke="#eee"/>
<text x="70" y="287.6" font-size="11" text-anchor="end" fill="#444">40</text>
<line x1="78" y1="204.4" x2="710" y2="204.4" stroke="#eee"/>
<text x="70" y="208.4" font-size="11" text-anchor="end" fill="#444">60</text>
<line x1="78" y1="125.2" x2="710" y2="125.2" stroke="#eee"/>
<text x="70" y="129.2" font-size="11" text-anchor="end" fill="#444">80</text>
<line x1="78" y1="46.0" x2="710" y2="46.0" stroke="#eee"/>
<text x="70" y="50.0" font-size="11" text-anchor="end" fill="#444">100</text>
<line x1="78" y1="442" x2="710" y2="442" stroke="#333"/>
<rect x="98.6" y="417.0" width="60.5" height="25.0" fill="#1f77b4"/>
<rect x="167.3" y="356.7" width="60.5" height="85.3" fill="#d62728"/>
<rect x="236.0" y="399.3" width="60.5" height="42.7" fill="#2ca02c"/>
<rect x="304.7" y="199.0" width="60.5" height="243.0" fill="#9467bd"/>
<text x="236.0" y="458" font-size="10.5" text-anchor="middle" fill="#444">defective parts</text>
<rect x="414.6" y="441.9" width="60.5" height="0.1" fill="#1f77b4"/>
<rect x="483.3" y="441.1" width="60.5" height="0.9" fill="#d62728"/>
<rect x="552.0" y="441.2" width="60.5" height="0.8" fill="#2ca02c"/>
<rect x="620.7" y="47.8" width="60.5" height="394.2" fill="#9467bd"/>
<text x="552.0" y="458" font-size="10.5" text-anchor="middle" fill="#444">good parts</text>
<rect x="718" y="44" width="20" height="11" fill="#1f77b4"/>
<text x="744" y="54" font-size="11" fill="#222">flagged by both</text>
<rect x="718" y="63" width="20" height="11" fill="#d62728"/>
<text x="744" y="73" font-size="11" fill="#222">b only (slope)</text>
<rect x="718" y="82" width="20" height="11" fill="#2ca02c"/>
<text x="744" y="92" font-size="11" fill="#222">d only (bound)</text>
<rect x="718" y="101" width="20" height="11" fill="#9467bd"/>
<text x="744" y="111" font-size="11" fill="#222">neither</text>
<text x="18" y="244" font-size="12" fill="#222" transform="rotate(-90 18 244)" text-anchor="middle">Share of parts in group (%)</text>
<text x="78" y="506" font-size="10.5" fill="#666">Test lots. The two rules overlap on only a fraction of the defects they each catch, so they are complementary rather than redundant.</text>
</svg>