<svg xmlns="http://www.w3.org/2000/svg" width="900" height="520" viewBox="0 0 900 520" font-family="system-ui,-apple-system,sans-serif">
<rect width="900" height="520" fill="#fff"/>
<text x="78" y="26" font-size="15" font-weight="600">The honest counterpart: yield loss at the guaranteed escape rate</text>
<line x1="78.0" y1="46" x2="78.0" y2="458" stroke="#eee"/>
<text x="78.0" y="476" font-size="11" text-anchor="middle" fill="#444">0</text>
<line x1="204.4" y1="46" x2="204.4" y2="458" stroke="#eee"/>
<text x="204.4" y="476" font-size="11" text-anchor="middle" fill="#444">4.2</text>
<line x1="330.8" y1="46" x2="330.8" y2="458" stroke="#eee"/>
<text x="330.8" y="476" font-size="11" text-anchor="middle" fill="#444">8.4</text>
<line x1="457.2" y1="46" x2="457.2" y2="458" stroke="#eee"/>
<text x="457.2" y="476" font-size="11" text-anchor="middle" fill="#444">12.6</text>
<line x1="583.6" y1="46" x2="583.6" y2="458" stroke="#eee"/>
<text x="583.6" y="476" font-size="11" text-anchor="middle" fill="#444">16.8</text>
<line x1="710.0" y1="46" x2="710.0" y2="458" stroke="#eee"/>
<text x="710.0" y="476" font-size="11" text-anchor="middle" fill="#444">21</text>
<line x1="78" y1="458.0" x2="710" y2="458.0" stroke="#eee"/>
<text x="70" y="462.0" font-size="11" text-anchor="end" fill="#444">0</text>
<line x1="78" y1="375.6" x2="710" y2="375.6" stroke="#eee"/>
<text x="70" y="379.6" font-size="11" text-anchor="end" fill="#444">20</text>
<line x1="78" y1="293.2" x2="710" y2="293.2" stroke="#eee"/>
<text x="70" y="297.2" font-size="11" text-anchor="end" fill="#444">40</text>
<line x1="78" y1="210.8" x2="710" y2="210.8" stroke="#eee"/>
<text x="70" y="214.8" font-size="11" text-anchor="end" fill="#444">60</text>
<line x1="78" y1="128.4" x2="710" y2="128.4" stroke="#eee"/>
<text x="70" y="132.4" font-size="11" text-anchor="end" fill="#444">80</text>
<line x1="78" y1="46.0" x2="710" y2="46.0" stroke="#eee"/>
<text x="70" y="50.0" font-size="11" text-anchor="end" fill="#444">100</text>
<line x1="78" y1="458" x2="710" y2="458" stroke="#333"/>
<line x1="78" y1="46" x2="78" y2="458" stroke="#333"/>
<text x="394" y="504" font-size="12" text-anchor="middle" fill="#222">Guaranteed escape rate (empirical FNR, %)</text>
<text x="18" y="252" font-size="12" fill="#222" transform="rotate(-90 18 252)" text-anchor="middle">Yield loss: good parts sacrificed (%)</text>
<path d="M107.0,101.2 L136.6,186.1 L166.6,241.8 L227.3,304.1 L303.6,380.1 L371.5,423.8 L519.1,453.3 L662.6,457.7" fill="none" stroke="#1f77b4" stroke-width="2" stroke-dasharray=""/>
<line x1="718" y1="52" x2="740" y2="52" stroke="#1f77b4" stroke-width="2.5"/>
<text x="745" y="56" font-size="11" fill="#222">ModuleA_LOF</text>
<path d="M102.2,282.2 L131.4,359.8 L165.3,382.9 L227.9,410.1 L308.1,429.1 L375.7,439.7 L519.9,451.4 L663.2,454.0" fill="none" stroke="#d62728" stroke-width="2" stroke-dasharray=""/>
<line x1="718" y1="71" x2="740" y2="71" stroke="#d62728" stroke-width="2.5"/>
<text x="745" y="75" font-size="11" fill="#222">ModuleA_fused_maxz</text>
<path d="M109.5,46.2 L138.9,46.9 L171.2,48.4 L227.8,52.7 L299.8,63.7 L376.6,81.1 L529.1,137.3 L674.5,198.7" fill="none" stroke="#2ca02c" stroke-width="2" stroke-dasharray=""/>
<line x1="718" y1="90" x2="740" y2="90" stroke="#2ca02c" stroke-width="2.5"/>
<text x="745" y="94" font-size="11" fill="#222">ModuleB_upper_bound_margin</text>
<text x="718" y="38" font-size="11" font-weight="600" fill="#222">Detector</text>
</svg>